<svg xmlns="http://www.w3.org/2000/svg" viewBox="0 0 250 250"><defs><linearGradient id="a" x1="56.12" y1="190.14" x2="193.63" y2="52.64" gradientUnits="userSpaceOnUse"><stop offset="0" stop-color="#3870c4" stop-opacity=".6"/><stop offset="1" stop-color="#3870c4" stop-opacity=".9"/></linearGradient><linearGradient id="b" x1="52.69" y1="193.7" x2="197.31" y2="49.08" gradientUnits="userSpaceOnUse"><stop offset="0" stop-color="#fff" stop-opacity="0"/><stop offset="1" stop-color="#fff" stop-opacity=".4"/></linearGradient></defs><circle cx="124.88" cy="121.39" r="97.23" stroke="#3870c4" stroke-miterlimit="10" stroke-width="8" fill="url(#a)"/><circle cx="125" cy="121.39" r="102.26" fill="url(#b)"/><ellipse cx="126.88" cy="225.42" rx="104.25" ry="2.44" opacity=".1"/><path d="M181.25 106.53c-17.93 12-36.24 23.9-54.37 35.85 18.13 12 36.06 23.9 53.25 35.84q1.68-35.82 1.12-71.69z" fill="#cfd0d4"/><path d="M72.51 106.53c17.94 12 36.25 23.9 54.37 35.85 18.13-11.95 36.44-23.9 54.37-35.85zm108.74 0c-18.31-12-36.62-23.9-54.37-35.85-17.74 11.95-36 23.9-54.37 35.85z" fill="#57595f"/><path d="M72.51 106.53q-.56 35.85 1.13 71.69c17.19-11.94 35.12-23.89 53.24-35.84-18.12-11.95-36.43-23.9-54.37-35.85z" fill="#cfd0d4"/><path d="M73.64 178.22h106.49c-17.19-11.94-35.12-23.89-53.25-35.84-18.12 11.95-36.05 23.9-53.24 35.84z" fill="#afafaf"/><path d="M173.15 65.63q-46.25-2.14-92.53 0-1.07 22.89-.87 45.7c15.61 10.35 31.44 20.7 47.13 31.05 15.7-10.35 31.53-20.7 47.14-31q.2-22.88-.87-45.75z" fill="#fff"/><path d="M98.18 123.5h57.41l8.72-5.75H89.46zm19 12.5h19.39l8.74-5.75h-36.86zm-30.93-25h81.29v-5.75H86.25zm0-18.25v5.75h81.29v-5.75z" fill="#e5e6ea"/><path d="M177.63 88.36a8.67 8.67 0 0 1-1.85-.19 6.31 6.31 0 0 1-1.68-.63 5.49 5.49 0 0 1-1.43-1.13 5.08 5.08 0 0 1-1-1.71 11.14 11.14 0 0 1-3.72 2.8 10.52 10.52 0 0 1-4.17.83 8 8 0 0 1-3.39-.67 6.65 6.65 0 0 1-2.44-1.86 7.87 7.87 0 0 1-1.5-2.8 12.63 12.63 0 0 1-.45-3.6 14.81 14.81 0 0 1 .43-3.45 14.66 14.66 0 0 1 1.3-3.38 14.36 14.36 0 0 1 2.19-3.06A13.44 13.44 0 0 1 163 67a16 16 0 0 1 4.06-1.68 18.84 18.84 0 0 1 5-.63c.87 0 1.67 0 2.38.11s1.38.16 2 .28a13 13 0 0 1 1.74.46c.54.19 1.1.4 1.68.64L177 77.47a11.81 11.81 0 0 0-.44 2.8 2.57 2.57 0 0 0 .67 2 2.66 2.66 0 0 0 1.8.56 3.13 3.13 0 0 0 2-.75 6.46 6.46 0 0 0 1.63-2.1 13.59 13.59 0 0 0 1.08-3.16 18.16 18.16 0 0 0 .4-4 17.69 17.69 0 0 0-1.1-6.51 12.62 12.62 0 0 0-3.14-4.71 13.51 13.51 0 0 0-4.9-2.79 19.73 19.73 0 0 0-6.38-1 17 17 0 0 0-7.05 1.43 16.72 16.72 0 0 0-5.57 3.93 17.91 17.91 0 0 0-3.61 5.8 19.22 19.22 0 0 0-1.3 7.1 22.21 22.21 0 0 0 1.45 8.36 16.67 16.67 0 0 0 4 6 16.41 16.41 0 0 0 6 3.62 23.25 23.25 0 0 0 7.58 1.2 34.14 34.14 0 0 0 4.33-.25 33.08 33.08 0 0 0 3.58-.65 21 21 0 0 0 2.86-.91 18.16 18.16 0 0 0 2.14-1 2.59 2.59 0 0 1 1.22-.36 1.49 1.49 0 0 1 1.46 1.1L187 96.4a24.91 24.91 0 0 1-3.29 1.81 28.75 28.75 0 0 1-3.9 1.46 30.73 30.73 0 0 1-4.5 1 38.06 38.06 0 0 1-5.15.34 29.49 29.49 0 0 1-10.3-1.74 23.76 23.76 0 0 1-8.14-5 22.58 22.58 0 0 1-5.35-7.85 26.67 26.67 0 0 1-1.92-10.33 22.65 22.65 0 0 1 .83-6.13 23.5 23.5 0 0 1 2.38-5.65 24.71 24.71 0 0 1 3.72-4.88 24.43 24.43 0 0 1 4.85-3.86 23.86 23.86 0 0 1 12.38-3.41 24.17 24.17 0 0 1 5.64.66 23.33 23.33 0 0 1 5.21 1.9 22.37 22.37 0 0 1 4.54 3.05 19.73 19.73 0 0 1 3.56 4.12 20 20 0 0 1 2.27 5.11 20.75 20.75 0 0 1 .83 5.94 18.13 18.13 0 0 1-1 6 15.36 15.36 0 0 1-2.7 4.91 12.9 12.9 0 0 1-4.14 3.32 11.39 11.39 0 0 1-5.19 1.19zm-12-5.71a4.16 4.16 0 0 0 1.3-.21 3.34 3.34 0 0 0 1.2-.7 5 5 0 0 0 1-1.3 7.73 7.73 0 0 0 .76-2l2.11-8.11a11.32 11.32 0 0 0-1.43-.09 6.14 6.14 0 0 0-2.85.71 7.84 7.84 0 0 0-2.4 1.94 9.84 9.84 0 0 0-2.24 6.28 4.25 4.25 0 0 0 .66 2.61 2.26 2.26 0 0 0 1.86.87z" fill="#e6292c"/></svg>