<svg xmlns="http://www.w3.org/2000/svg" xmlns:xlink="http://www.w3.org/1999/xlink" viewBox="0 0 250 250"><defs><linearGradient id="a" x1="52.69" y1="193.7" x2="197.31" y2="49.08" gradientUnits="userSpaceOnUse"><stop offset="0" stop-color="#fff" stop-opacity="0"/><stop offset="1" stop-color="#fff" stop-opacity="0.4"/></linearGradient><linearGradient id="b" x1="100.5" y1="92.53" x2="117.47" y2="92.53" gradientTransform="translate(31.06 -8.71) rotate(-0.12)" gradientUnits="userSpaceOnUse"><stop offset="0" stop-color="#fff" stop-opacity="0"/><stop offset="0.32" stop-color="#fff" stop-opacity="0.01"/><stop offset="0.52" stop-color="#fff" stop-opacity="0.04"/><stop offset="0.69" stop-color="#fff" stop-opacity="0.1"/><stop offset="0.85" stop-color="#fff" stop-opacity="0.18"/><stop offset="0.99" stop-color="#fff" stop-opacity="0.29"/><stop offset="1" stop-color="#fff" stop-opacity="0.3"/></linearGradient><linearGradient id="c" x1="109.74" y1="115.9" x2="122.54" y2="118.62" gradientTransform="translate(31.06 -8.71) rotate(-0.12)" gradientUnits="userSpaceOnUse"><stop offset="0" stop-opacity="0.4"/><stop offset="0.13" stop-opacity="0.27"/><stop offset="1" stop-opacity="0"/></linearGradient><linearGradient id="d" x1="63.24" y1="84.82" x2="75.68" y2="81.72" gradientTransform="translate(9.54 -7.01) rotate(2.91)" gradientUnits="userSpaceOnUse"><stop offset="0" stop-opacity="0.4"/><stop offset="1" stop-opacity="0"/></linearGradient><clipPath id="e"><path d="M238.67,78.67c-2-4.67-14.67-26-16.34-34.67s-8-12-11.33-16.27-16-5.06-16-5.06S157.67,13.33,153.67,13l-53-4.33L47.67,14,14,27.73,34.44,90.84A93.68,93.68,0,0,0,207.91,161L233,167.33l1.67-17-3.34-16,7-28.66S240,94,240,92.52,240.67,83.33,238.67,78.67Z" style="fill:none"/></clipPath><linearGradient id="f" x1="81.74" y1="186.96" x2="94.38" y2="183.81" gradientTransform="translate(47.29 -18.53) rotate(13.95)" gradientUnits="userSpaceOnUse"><stop offset="0" stop-color="#afafaf"/><stop offset="1" stop-color="#cfd0d4"/></linearGradient></defs><title>disputelab_flag-success</title><circle cx="123" cy="121.39" r="97.23" style="fill:none;stroke:#cfd0d4;stroke-miterlimit:10;stroke-width:8px"/><circle cx="125" cy="121.39" r="102.26" style="fill:url(#a)"/><ellipse cx="125.01" cy="225.42" rx="104.25" ry="2.44" style="opacity:0.1"/><path d="M147.66,92.52c.09.24.16.48.25.73Z" style="fill:none"/><path d="M79.37,75.86c-.23-.66-.47-1.3-.71-1.94.4,1.2.61,1.91.61,1.91Z" style="fill:none"/><path d="M148.66,70.75l-.09,0s0-.66,0-1.79a141.88,141.88,0,0,0-2.68-24.33l-.15-.68S98,25.75,57.61,33.13L76.36,129.3s46.28-12.48,60.56-6.75c2.88,1.15,4.07,2.63,4.33,4.29A185.45,185.45,0,0,0,148.66,70.75Z" style="fill:#4caf50"/><path d="M148.66,70.75a185.45,185.45,0,0,1-7.41,56.09c1,6.54-12.93,15.81,2.5,18.49,19.34,3.36,58.8-4.7,81.51-55.07C225.26,90.26,185.57,94.39,148.66,70.75Z" style="fill:#4caf50"/><path d="M148.57,70.7s0-.66,0-1.79a141.88,141.88,0,0,0-2.68-24.33l-.15-.68s-4.1-1.55-10.89-3.56c1.43,15.86,3.9,54.63-3.06,81a20.39,20.39,0,0,1,5.09,1.19c2.88,1.15,4.07,2.63,4.33,4.29a185.45,185.45,0,0,0,7.41-56.09Z" style="fill:url(#b)"/><path d="M142.9,145.16c10.41-19.43,14-53.67,14.2-69.51-2.82-1.49-5.64-3.1-8.44-4.9a185.45,185.45,0,0,1-7.41,56.09C142.22,133.25,128.87,142.28,142.9,145.16Z" style="fill:url(#c)"/><path d="M59.07,32.9l18.73,96c2.18-.56,6.7-1.69,12.4-2.93L71.77,31.54A112,112,0,0,0,59.07,32.9Z" style="fill:url(#d)"/><g style="clip-path:url(#e)"><rect x="81.7" y="19.33" width="12.73" height="326.56" transform="translate(-33.33 20.24) rotate(-11.04)" style="fill:url(#f)"/></g><circle cx="55.52" cy="18.64" r="10.35" style="fill:#fcad3a"/><path d="M63,18.37c-1.41.41-3.56-1.63-6.17-2.42-2.51-1.06-5.46-.86-6.29-2.08-1-1.17,2.86-4.82,8.12-3S64.56,18.11,63,18.37Z" style="fill:#fff;opacity:0.3"/><g style="opacity:0.1"><path d="M57.4,26.21a22,22,0,0,1-8.27.57,10.32,10.32,0,0,0,15.84-4A22,22,0,0,1,57.4,26.21Z"/></g></svg>